# xmcd CD database file
#
# Track frame offsets:
#	150
#	18356
#	32631
#	47051
#	62757
#	76426
#	94018
#	108890
#	125301
#	140113
#	156278
#	172168
#	186310
#
# Disc length: 2694 seconds
#
# Revision: 0
# Processed by: cddbd v1.5.2PL0 Copyright (c) Steve Scherf et al.
# Submitted via: CDex 1.51
#
DISCID=af0a840d
DTITLE=Corpo e Alma - É mais que uma mulher
DYEAR=1900
DGENRE=Merengue
TTITLE0=Corpo e Alma - É mais que uma mulher
TTITLE1=Corpo e Alma - Misteriosa
TTITLE2=Corpo e Alma - Coisas do amor
TTITLE3=Corpo e Alma - Frente a frente
TTITLE4=Corpo e Alma - Casa vazia
TTITLE5=Corpo e Alma - Jeito de amar
TTITLE6=Corpo e Alma - Quero dançar
TTITLE7=Corpo e Alma - Carro 3 em 1
TTITLE8=Corpo e Alma - Quando existe amor
TTITLE9=Corpo e Alma - Volte prá mim
TTITLE10=Corpo e Alma - Pode tocar
TTITLE11=Corpo e Alma - Um anjo não deve chorar
TTITLE12=Corpo e Alma - Amante profissional
EXTD=
EXTT0=
EXTT1=
EXTT2=
EXTT3=
EXTT4=
EXTT5=
EXTT6=
EXTT7=
EXTT8=
EXTT9=
EXTT10=
EXTT11=
EXTT12=
PLAYORDER=
